<mxfile host="app.diagrams.net" modified="2020-12-09T15:17:36.353Z" agent="5.0 (Windows)" etag="O0sZh8lG8fMUGy7eLxYB" version="14.0.0" type="github" pages="3">
  <diagram id="rOT_2_1dodzJST7O1cHZ" name="Page-2">
    <mxGraphModel dx="1550" dy="547" grid="1" gridSize="10" guides="1" tooltips="1" connect="1" arrows="1" fold="1" page="1" pageScale="1" pageWidth="827" pageHeight="1169" math="0" shadow="0">
      <root>
        <mxCell id="ULeVMZqXTmx9Lc_fdObT-0" />
        <mxCell id="ULeVMZqXTmx9Lc_fdObT-1" parent="ULeVMZqXTmx9Lc_fdObT-0" />
        <mxCell id="ULeVMZqXTmx9Lc_fdObT-3" value="&lt;b&gt;&lt;font style=&quot;font-size: 15px&quot;&gt;Main Menü&lt;/font&gt;&lt;/b&gt;" style="text;html=1;strokeColor=none;fillColor=none;align=center;verticalAlign=middle;whiteSpace=wrap;rounded=0;" vertex="1" parent="ULeVMZqXTmx9Lc_fdObT-1">
          <mxGeometry x="350" y="20" width="90" height="20" as="geometry" />
        </mxCell>
        <mxCell id="ULeVMZqXTmx9Lc_fdObT-4" value="Start" style="ellipse;whiteSpace=wrap;html=1;" vertex="1" parent="ULeVMZqXTmx9Lc_fdObT-1">
          <mxGeometry x="340" y="70" width="120" height="80" as="geometry" />
        </mxCell>
        <mxCell id="tujo50ms9TBHZp3e6txH-1" value="" style="rhombus;whiteSpace=wrap;html=1;strokeWidth=1;" vertex="1" parent="ULeVMZqXTmx9Lc_fdObT-1">
          <mxGeometry x="360" y="420" width="80" height="80" as="geometry" />
        </mxCell>
        <mxCell id="tujo50ms9TBHZp3e6txH-2" value="Anzeige Start" style="rounded=0;whiteSpace=wrap;html=1;strokeWidth=1;" vertex="1" parent="ULeVMZqXTmx9Lc_fdObT-1">
          <mxGeometry x="340" y="320" width="120" height="60" as="geometry" />
        </mxCell>
        <mxCell id="tujo50ms9TBHZp3e6txH-3" value="Ausführung" style="shape=process;whiteSpace=wrap;html=1;backgroundOutline=1;strokeWidth=1;" vertex="1" parent="ULeVMZqXTmx9Lc_fdObT-1">
          <mxGeometry x="110" y="430" width="120" height="60" as="geometry" />
        </mxCell>
        <mxCell id="tujo50ms9TBHZp3e6txH-4" value="Einstellungen" style="shape=process;whiteSpace=wrap;html=1;backgroundOutline=1;strokeWidth=1;" vertex="1" parent="ULeVMZqXTmx9Lc_fdObT-1">
          <mxGeometry x="570" y="430" width="120" height="60" as="geometry" />
        </mxCell>
        <mxCell id="tujo50ms9TBHZp3e6txH-5" value="" style="endArrow=classic;html=1;entryX=1;entryY=0.5;entryDx=0;entryDy=0;exitX=0;exitY=0.5;exitDx=0;exitDy=0;" edge="1" parent="ULeVMZqXTmx9Lc_fdObT-1" source="tujo50ms9TBHZp3e6txH-1" target="tujo50ms9TBHZp3e6txH-3">
          <mxGeometry width="50" height="50" relative="1" as="geometry">
            <mxPoint x="290" y="540" as="sourcePoint" />
            <mxPoint x="340" y="490" as="targetPoint" />
          </mxGeometry>
        </mxCell>
        <mxCell id="tujo50ms9TBHZp3e6txH-9" value="Button 0" style="edgeLabel;html=1;align=center;verticalAlign=middle;resizable=0;points=[];" vertex="1" connectable="0" parent="tujo50ms9TBHZp3e6txH-5">
          <mxGeometry x="0.2462" y="-2" relative="1" as="geometry">
            <mxPoint x="11" as="offset" />
          </mxGeometry>
        </mxCell>
        <mxCell id="tujo50ms9TBHZp3e6txH-6" value="Button 1" style="endArrow=classic;html=1;entryX=0;entryY=0.5;entryDx=0;entryDy=0;" edge="1" parent="ULeVMZqXTmx9Lc_fdObT-1" source="tujo50ms9TBHZp3e6txH-1" target="tujo50ms9TBHZp3e6txH-4">
          <mxGeometry x="-0.0769" width="50" height="50" relative="1" as="geometry">
            <mxPoint x="440" y="510" as="sourcePoint" />
            <mxPoint x="510.71067811865476" y="460" as="targetPoint" />
            <mxPoint as="offset" />
          </mxGeometry>
        </mxCell>
        <mxCell id="tujo50ms9TBHZp3e6txH-7" value="" style="endArrow=classic;html=1;entryX=0.5;entryY=0;entryDx=0;entryDy=0;exitX=0.5;exitY=1;exitDx=0;exitDy=0;" edge="1" parent="ULeVMZqXTmx9Lc_fdObT-1" source="tujo50ms9TBHZp3e6txH-2" target="tujo50ms9TBHZp3e6txH-1">
          <mxGeometry width="50" height="50" relative="1" as="geometry">
            <mxPoint x="310" y="460" as="sourcePoint" />
            <mxPoint x="360" y="410" as="targetPoint" />
          </mxGeometry>
        </mxCell>
        <mxCell id="PGZxKdtXXsf-hoG0dPuT-0" value="Init" style="rounded=0;whiteSpace=wrap;html=1;strokeWidth=1;" vertex="1" parent="ULeVMZqXTmx9Lc_fdObT-1">
          <mxGeometry x="340" y="210" width="120" height="60" as="geometry" />
        </mxCell>
        <mxCell id="PGZxKdtXXsf-hoG0dPuT-1" value="" style="endArrow=classic;html=1;entryX=0.5;entryY=0;entryDx=0;entryDy=0;exitX=0.5;exitY=1;exitDx=0;exitDy=0;" edge="1" parent="ULeVMZqXTmx9Lc_fdObT-1" source="ULeVMZqXTmx9Lc_fdObT-4" target="PGZxKdtXXsf-hoG0dPuT-0">
          <mxGeometry width="50" height="50" relative="1" as="geometry">
            <mxPoint x="290" y="210" as="sourcePoint" />
            <mxPoint x="340" y="160" as="targetPoint" />
          </mxGeometry>
        </mxCell>
        <mxCell id="PGZxKdtXXsf-hoG0dPuT-2" value="" style="endArrow=classic;html=1;entryX=0.5;entryY=0;entryDx=0;entryDy=0;exitX=0.5;exitY=1;exitDx=0;exitDy=0;" edge="1" parent="ULeVMZqXTmx9Lc_fdObT-1">
          <mxGeometry width="50" height="50" relative="1" as="geometry">
            <mxPoint x="400" y="150" as="sourcePoint" />
            <mxPoint x="400" y="210" as="targetPoint" />
          </mxGeometry>
        </mxCell>
        <mxCell id="PGZxKdtXXsf-hoG0dPuT-3" value="" style="endArrow=classic;html=1;exitX=0.5;exitY=1;exitDx=0;exitDy=0;entryX=0.5;entryY=0;entryDx=0;entryDy=0;" edge="1" parent="ULeVMZqXTmx9Lc_fdObT-1" source="PGZxKdtXXsf-hoG0dPuT-0" target="tujo50ms9TBHZp3e6txH-2">
          <mxGeometry width="50" height="50" relative="1" as="geometry">
            <mxPoint x="390" y="290" as="sourcePoint" />
            <mxPoint x="440" y="240" as="targetPoint" />
          </mxGeometry>
        </mxCell>
        <mxCell id="PGZxKdtXXsf-hoG0dPuT-4" value="" style="endArrow=classic;html=1;exitX=0;exitY=0.5;exitDx=0;exitDy=0;entryX=0;entryY=0.5;entryDx=0;entryDy=0;" edge="1" parent="ULeVMZqXTmx9Lc_fdObT-1" source="tujo50ms9TBHZp3e6txH-3" target="tujo50ms9TBHZp3e6txH-2">
          <mxGeometry width="50" height="50" relative="1" as="geometry">
            <mxPoint x="90" y="500" as="sourcePoint" />
            <mxPoint x="140" y="450" as="targetPoint" />
            <Array as="points">
              <mxPoint x="60" y="460" />
              <mxPoint x="60" y="350" />
            </Array>
          </mxGeometry>
        </mxCell>
        <mxCell id="PGZxKdtXXsf-hoG0dPuT-5" value="" style="endArrow=classic;html=1;exitX=1;exitY=0.5;exitDx=0;exitDy=0;entryX=1;entryY=0.5;entryDx=0;entryDy=0;" edge="1" parent="ULeVMZqXTmx9Lc_fdObT-1" source="tujo50ms9TBHZp3e6txH-4" target="tujo50ms9TBHZp3e6txH-2">
          <mxGeometry width="50" height="50" relative="1" as="geometry">
            <mxPoint x="720" y="500" as="sourcePoint" />
            <mxPoint x="770" y="460" as="targetPoint" />
            <Array as="points">
              <mxPoint x="750" y="460" />
              <mxPoint x="750" y="350" />
            </Array>
          </mxGeometry>
        </mxCell>
      </root>
    </mxGraphModel>
  </diagram>
  <diagram id="Cs_5MTzE2tVfoofBbC0X" name="Page-3">
    <mxGraphModel dx="1550" dy="547" grid="1" gridSize="10" guides="1" tooltips="1" connect="1" arrows="1" fold="1" page="1" pageScale="1" pageWidth="827" pageHeight="1169" math="0" shadow="0">
      <root>
        <mxCell id="uun37S1YXeA-4gwnj6Af-0" />
        <mxCell id="uun37S1YXeA-4gwnj6Af-1" parent="uun37S1YXeA-4gwnj6Af-0" />
        <mxCell id="uun37S1YXeA-4gwnj6Af-2" value="&lt;b&gt;&lt;font style=&quot;font-size: 15px&quot;&gt;Einstellungen&lt;/font&gt;&lt;/b&gt;" style="text;html=1;strokeColor=none;fillColor=none;align=center;verticalAlign=middle;whiteSpace=wrap;rounded=0;strokeWidth=4;" vertex="1" parent="uun37S1YXeA-4gwnj6Af-1">
          <mxGeometry x="380" y="30" width="40" height="20" as="geometry" />
        </mxCell>
        <mxCell id="uun37S1YXeA-4gwnj6Af-3" value="Start" style="ellipse;whiteSpace=wrap;html=1;" vertex="1" parent="uun37S1YXeA-4gwnj6Af-1">
          <mxGeometry x="340" y="90" width="120" height="80" as="geometry" />
        </mxCell>
        <mxCell id="-KnNzTkH-OqxsifT787O-6" value="&lt;div&gt;Anzeige 0 (Schwierigkeit)&lt;br&gt;&lt;/div&gt;&lt;div&gt;Auswahl 0&lt;br&gt;&lt;/div&gt;" style="rounded=0;whiteSpace=wrap;html=1;" vertex="1" parent="uun37S1YXeA-4gwnj6Af-1">
          <mxGeometry x="340" y="220" width="120" height="60" as="geometry" />
        </mxCell>
        <mxCell id="-KnNzTkH-OqxsifT787O-7" value="" style="rhombus;whiteSpace=wrap;html=1;" vertex="1" parent="uun37S1YXeA-4gwnj6Af-1">
          <mxGeometry x="360" y="320" width="80" height="80" as="geometry" />
        </mxCell>
        <mxCell id="-KnNzTkH-OqxsifT787O-8" value="Anzeige 1 (Programmauswahl)&lt;br&gt;&lt;div&gt;Auswahl 0&lt;br&gt;&lt;/div&gt;" style="rounded=0;whiteSpace=wrap;html=1;" vertex="1" parent="uun37S1YXeA-4gwnj6Af-1">
          <mxGeometry x="340" y="450" width="120" height="60" as="geometry" />
        </mxCell>
        <mxCell id="-KnNzTkH-OqxsifT787O-12" value="" style="endArrow=classic;html=1;exitX=0.5;exitY=1;exitDx=0;exitDy=0;entryX=0.5;entryY=0;entryDx=0;entryDy=0;" edge="1" parent="uun37S1YXeA-4gwnj6Af-1" source="uun37S1YXeA-4gwnj6Af-3" target="-KnNzTkH-OqxsifT787O-6">
          <mxGeometry width="50" height="50" relative="1" as="geometry">
            <mxPoint x="390" y="260" as="sourcePoint" />
            <mxPoint x="440" y="210" as="targetPoint" />
          </mxGeometry>
        </mxCell>
        <mxCell id="-KnNzTkH-OqxsifT787O-13" value="" style="endArrow=classic;html=1;exitX=0.5;exitY=1;exitDx=0;exitDy=0;entryX=0.5;entryY=0;entryDx=0;entryDy=0;" edge="1" parent="uun37S1YXeA-4gwnj6Af-1" source="-KnNzTkH-OqxsifT787O-6" target="-KnNzTkH-OqxsifT787O-7">
          <mxGeometry width="50" height="50" relative="1" as="geometry">
            <mxPoint x="390" y="310" as="sourcePoint" />
            <mxPoint x="440" y="260" as="targetPoint" />
          </mxGeometry>
        </mxCell>
        <mxCell id="eCDb-_Pp2WoMYoIWz7sK-0" value="Joystick runter" style="endArrow=classic;html=1;entryX=0.5;entryY=0;entryDx=0;entryDy=0;exitX=0.5;exitY=1;exitDx=0;exitDy=0;" edge="1" parent="uun37S1YXeA-4gwnj6Af-1" source="-KnNzTkH-OqxsifT787O-7" target="-KnNzTkH-OqxsifT787O-8">
          <mxGeometry width="50" height="50" relative="1" as="geometry">
            <mxPoint x="390" y="410" as="sourcePoint" />
            <mxPoint x="420" y="410" as="targetPoint" />
          </mxGeometry>
        </mxCell>
        <mxCell id="eCDb-_Pp2WoMYoIWz7sK-6" value="Joystick rechts" style="endArrow=classic;html=1;" edge="1" parent="uun37S1YXeA-4gwnj6Af-1" source="-KnNzTkH-OqxsifT787O-7">
          <mxGeometry width="50" height="50" relative="1" as="geometry">
            <mxPoint x="480" y="410" as="sourcePoint" />
            <mxPoint x="560" y="360" as="targetPoint" />
          </mxGeometry>
        </mxCell>
        <mxCell id="eCDb-_Pp2WoMYoIWz7sK-7" value="&lt;div&gt;Anzeige 0&lt;/div&gt;&lt;div&gt;Auswahl 1&lt;br&gt;&lt;/div&gt;" style="rounded=0;whiteSpace=wrap;html=1;" vertex="1" parent="uun37S1YXeA-4gwnj6Af-1">
          <mxGeometry x="560" y="330" width="120" height="60" as="geometry" />
        </mxCell>
        <mxCell id="eCDb-_Pp2WoMYoIWz7sK-8" value="&lt;div&gt;Anzeige 0&lt;/div&gt;&lt;div&gt;Auswahl -1&lt;br&gt;&lt;/div&gt;" style="rounded=0;whiteSpace=wrap;html=1;" vertex="1" parent="uun37S1YXeA-4gwnj6Af-1">
          <mxGeometry x="130" y="330" width="120" height="60" as="geometry" />
        </mxCell>
        <mxCell id="eCDb-_Pp2WoMYoIWz7sK-9" value="" style="endArrow=classic;html=1;exitX=0;exitY=0.5;exitDx=0;exitDy=0;entryX=1;entryY=0.5;entryDx=0;entryDy=0;" edge="1" parent="uun37S1YXeA-4gwnj6Af-1" source="-KnNzTkH-OqxsifT787O-7" target="eCDb-_Pp2WoMYoIWz7sK-8">
          <mxGeometry width="50" height="50" relative="1" as="geometry">
            <mxPoint x="290" y="420" as="sourcePoint" />
            <mxPoint x="340" y="370" as="targetPoint" />
          </mxGeometry>
        </mxCell>
        <mxCell id="eCDb-_Pp2WoMYoIWz7sK-11" value="Joystick links" style="edgeLabel;html=1;align=center;verticalAlign=middle;resizable=0;points=[];" vertex="1" connectable="0" parent="eCDb-_Pp2WoMYoIWz7sK-9">
          <mxGeometry x="-0.2545" y="3" relative="1" as="geometry">
            <mxPoint x="-9" y="-3" as="offset" />
          </mxGeometry>
        </mxCell>
        <mxCell id="eCDb-_Pp2WoMYoIWz7sK-12" value="" style="rhombus;whiteSpace=wrap;html=1;" vertex="1" parent="uun37S1YXeA-4gwnj6Af-1">
          <mxGeometry x="360" y="560" width="80" height="80" as="geometry" />
        </mxCell>
        <mxCell id="eCDb-_Pp2WoMYoIWz7sK-13" value="Joystick rechts" style="endArrow=classic;html=1;" edge="1" parent="uun37S1YXeA-4gwnj6Af-1" source="eCDb-_Pp2WoMYoIWz7sK-12">
          <mxGeometry width="50" height="50" relative="1" as="geometry">
            <mxPoint x="480" y="650" as="sourcePoint" />
            <mxPoint x="560" y="600" as="targetPoint" />
          </mxGeometry>
        </mxCell>
        <mxCell id="eCDb-_Pp2WoMYoIWz7sK-14" value="&lt;div&gt;Anzeige 1&lt;br&gt;&lt;/div&gt;&lt;div&gt;Auswahl 1&lt;br&gt;&lt;/div&gt;" style="rounded=0;whiteSpace=wrap;html=1;" vertex="1" parent="uun37S1YXeA-4gwnj6Af-1">
          <mxGeometry x="560" y="570" width="120" height="60" as="geometry" />
        </mxCell>
        <mxCell id="eCDb-_Pp2WoMYoIWz7sK-15" value="&lt;div&gt;Anzeige 1&lt;br&gt;&lt;/div&gt;&lt;div&gt;Auswahl -1&lt;br&gt;&lt;/div&gt;" style="rounded=0;whiteSpace=wrap;html=1;" vertex="1" parent="uun37S1YXeA-4gwnj6Af-1">
          <mxGeometry x="130" y="570" width="120" height="60" as="geometry" />
        </mxCell>
        <mxCell id="eCDb-_Pp2WoMYoIWz7sK-16" value="" style="endArrow=classic;html=1;exitX=0;exitY=0.5;exitDx=0;exitDy=0;entryX=1;entryY=0.5;entryDx=0;entryDy=0;" edge="1" parent="uun37S1YXeA-4gwnj6Af-1" source="eCDb-_Pp2WoMYoIWz7sK-12" target="eCDb-_Pp2WoMYoIWz7sK-15">
          <mxGeometry width="50" height="50" relative="1" as="geometry">
            <mxPoint x="290" y="660" as="sourcePoint" />
            <mxPoint x="340" y="610" as="targetPoint" />
          </mxGeometry>
        </mxCell>
        <mxCell id="eCDb-_Pp2WoMYoIWz7sK-17" value="Joystick links" style="edgeLabel;html=1;align=center;verticalAlign=middle;resizable=0;points=[];" vertex="1" connectable="0" parent="eCDb-_Pp2WoMYoIWz7sK-16">
          <mxGeometry x="-0.2545" y="3" relative="1" as="geometry">
            <mxPoint x="-9" y="-3" as="offset" />
          </mxGeometry>
        </mxCell>
        <mxCell id="eCDb-_Pp2WoMYoIWz7sK-18" value="" style="endArrow=classic;html=1;entryX=0.5;entryY=0;entryDx=0;entryDy=0;exitX=0.5;exitY=1;exitDx=0;exitDy=0;" edge="1" parent="uun37S1YXeA-4gwnj6Af-1" source="-KnNzTkH-OqxsifT787O-8" target="eCDb-_Pp2WoMYoIWz7sK-12">
          <mxGeometry width="50" height="50" relative="1" as="geometry">
            <mxPoint x="390" y="480" as="sourcePoint" />
            <mxPoint x="440" y="430" as="targetPoint" />
          </mxGeometry>
        </mxCell>
        <mxCell id="eCDb-_Pp2WoMYoIWz7sK-21" value="Anzeige 2 (Funktionstest Touch)&lt;br&gt;&lt;div&gt;Auswahl 0&lt;br&gt;&lt;/div&gt;" style="rounded=0;whiteSpace=wrap;html=1;" vertex="1" parent="uun37S1YXeA-4gwnj6Af-1">
          <mxGeometry x="340" y="690" width="120" height="60" as="geometry" />
        </mxCell>
        <mxCell id="eCDb-_Pp2WoMYoIWz7sK-22" value="" style="rhombus;whiteSpace=wrap;html=1;" vertex="1" parent="uun37S1YXeA-4gwnj6Af-1">
          <mxGeometry x="360" y="800" width="80" height="80" as="geometry" />
        </mxCell>
        <mxCell id="eCDb-_Pp2WoMYoIWz7sK-23" value="Joystick rechts" style="endArrow=classic;html=1;" edge="1" parent="uun37S1YXeA-4gwnj6Af-1" source="eCDb-_Pp2WoMYoIWz7sK-22">
          <mxGeometry width="50" height="50" relative="1" as="geometry">
            <mxPoint x="480" y="890" as="sourcePoint" />
            <mxPoint x="560" y="840" as="targetPoint" />
          </mxGeometry>
        </mxCell>
        <mxCell id="eCDb-_Pp2WoMYoIWz7sK-24" value="&lt;div&gt;Anzeige 2&lt;br&gt;&lt;/div&gt;&lt;div&gt;Auswahl 1&lt;br&gt;&lt;/div&gt;" style="rounded=0;whiteSpace=wrap;html=1;" vertex="1" parent="uun37S1YXeA-4gwnj6Af-1">
          <mxGeometry x="560" y="810" width="120" height="60" as="geometry" />
        </mxCell>
        <mxCell id="eCDb-_Pp2WoMYoIWz7sK-25" value="&lt;div&gt;Anzeige 2&lt;br&gt;&lt;/div&gt;&lt;div&gt;Auswahl -1&lt;br&gt;&lt;/div&gt;" style="rounded=0;whiteSpace=wrap;html=1;" vertex="1" parent="uun37S1YXeA-4gwnj6Af-1">
          <mxGeometry x="130" y="810" width="120" height="60" as="geometry" />
        </mxCell>
        <mxCell id="eCDb-_Pp2WoMYoIWz7sK-26" value="" style="endArrow=classic;html=1;exitX=0;exitY=0.5;exitDx=0;exitDy=0;entryX=1;entryY=0.5;entryDx=0;entryDy=0;" edge="1" parent="uun37S1YXeA-4gwnj6Af-1" source="eCDb-_Pp2WoMYoIWz7sK-22" target="eCDb-_Pp2WoMYoIWz7sK-25">
          <mxGeometry width="50" height="50" relative="1" as="geometry">
            <mxPoint x="290" y="900" as="sourcePoint" />
            <mxPoint x="340" y="850" as="targetPoint" />
          </mxGeometry>
        </mxCell>
        <mxCell id="eCDb-_Pp2WoMYoIWz7sK-27" value="Joystick links" style="edgeLabel;html=1;align=center;verticalAlign=middle;resizable=0;points=[];" vertex="1" connectable="0" parent="eCDb-_Pp2WoMYoIWz7sK-26">
          <mxGeometry x="-0.2545" y="3" relative="1" as="geometry">
            <mxPoint x="-9" y="-3" as="offset" />
          </mxGeometry>
        </mxCell>
        <mxCell id="eCDb-_Pp2WoMYoIWz7sK-28" value="" style="endArrow=classic;html=1;entryX=0.5;entryY=0;entryDx=0;entryDy=0;exitX=0.5;exitY=1;exitDx=0;exitDy=0;" edge="1" parent="uun37S1YXeA-4gwnj6Af-1" source="eCDb-_Pp2WoMYoIWz7sK-21" target="eCDb-_Pp2WoMYoIWz7sK-22">
          <mxGeometry width="50" height="50" relative="1" as="geometry">
            <mxPoint x="390" y="720" as="sourcePoint" />
            <mxPoint x="440" y="670" as="targetPoint" />
          </mxGeometry>
        </mxCell>
        <mxCell id="eCDb-_Pp2WoMYoIWz7sK-31" value="" style="endArrow=classic;html=1;entryX=0.5;entryY=0;entryDx=0;entryDy=0;exitX=0.5;exitY=1;exitDx=0;exitDy=0;" edge="1" parent="uun37S1YXeA-4gwnj6Af-1" source="eCDb-_Pp2WoMYoIWz7sK-12" target="eCDb-_Pp2WoMYoIWz7sK-21">
          <mxGeometry width="50" height="50" relative="1" as="geometry">
            <mxPoint x="390" y="600" as="sourcePoint" />
            <mxPoint x="440" y="550" as="targetPoint" />
          </mxGeometry>
        </mxCell>
        <mxCell id="eCDb-_Pp2WoMYoIWz7sK-33" value="" style="endArrow=classic;html=1;exitX=0.5;exitY=1;exitDx=0;exitDy=0;entryX=0;entryY=0.5;entryDx=0;entryDy=0;" edge="1" parent="uun37S1YXeA-4gwnj6Af-1" source="eCDb-_Pp2WoMYoIWz7sK-22" target="-KnNzTkH-OqxsifT787O-6">
          <mxGeometry width="50" height="50" relative="1" as="geometry">
            <mxPoint x="390" y="770" as="sourcePoint" />
            <mxPoint x="440" y="720" as="targetPoint" />
            <Array as="points">
              <mxPoint x="400" y="940" />
              <mxPoint x="70" y="940" />
              <mxPoint x="70" y="250" />
            </Array>
          </mxGeometry>
        </mxCell>
      </root>
    </mxGraphModel>
  </diagram>
  <diagram id="aKbDtMCXZxBv86g-48Vn" name="Page-4">
    <mxGraphModel dx="1550" dy="547" grid="1" gridSize="10" guides="1" tooltips="1" connect="1" arrows="1" fold="1" page="1" pageScale="1" pageWidth="827" pageHeight="1169" math="0" shadow="0">
      <root>
        <mxCell id="KEhaxL_38UV0xd30VIly-0" />
        <mxCell id="KEhaxL_38UV0xd30VIly-1" parent="KEhaxL_38UV0xd30VIly-0" />
        <mxCell id="KEhaxL_38UV0xd30VIly-2" value="&lt;b&gt;&lt;font style=&quot;font-size: 15px&quot;&gt;Programm ausführung&lt;/font&gt;&lt;/b&gt;" style="text;html=1;strokeColor=none;fillColor=none;align=center;verticalAlign=middle;whiteSpace=wrap;rounded=0;" vertex="1" parent="KEhaxL_38UV0xd30VIly-1">
          <mxGeometry x="380" y="20" width="40" height="20" as="geometry" />
        </mxCell>
        <mxCell id="KEhaxL_38UV0xd30VIly-3" value="Start" style="ellipse;whiteSpace=wrap;html=1;" vertex="1" parent="KEhaxL_38UV0xd30VIly-1">
          <mxGeometry x="340" y="60" width="120" height="80" as="geometry" />
        </mxCell>
        <mxCell id="KEhaxL_38UV0xd30VIly-4" value="&lt;div&gt;Programm&lt;br&gt;&lt;/div&gt;&lt;div&gt;Register&lt;/div&gt;" style="rhombus;whiteSpace=wrap;html=1;" vertex="1" parent="KEhaxL_38UV0xd30VIly-1">
          <mxGeometry x="350" y="250" width="100" height="90" as="geometry" />
        </mxCell>
        <mxCell id="KEhaxL_38UV0xd30VIly-6" value="&lt;div&gt;Subrountine 0&lt;/div&gt;&lt;div&gt;Joystick&lt;br&gt;&lt;/div&gt;" style="rounded=0;whiteSpace=wrap;html=1;" vertex="1" parent="KEhaxL_38UV0xd30VIly-1">
          <mxGeometry x="150" y="370" width="120" height="60" as="geometry" />
        </mxCell>
        <mxCell id="KEhaxL_38UV0xd30VIly-13" value="" style="endArrow=classic;html=1;exitX=0;exitY=0.5;exitDx=0;exitDy=0;entryX=0.5;entryY=0;entryDx=0;entryDy=0;" edge="1" parent="KEhaxL_38UV0xd30VIly-1" source="KEhaxL_38UV0xd30VIly-4" target="KEhaxL_38UV0xd30VIly-6">
          <mxGeometry width="50" height="50" relative="1" as="geometry">
            <mxPoint x="190" y="340" as="sourcePoint" />
            <mxPoint x="240" y="290" as="targetPoint" />
            <Array as="points">
              <mxPoint x="210" y="295" />
            </Array>
          </mxGeometry>
        </mxCell>
        <mxCell id="KEhaxL_38UV0xd30VIly-15" value="" style="endArrow=classic;html=1;exitX=1;exitY=0.5;exitDx=0;exitDy=0;entryX=0.5;entryY=0;entryDx=0;entryDy=0;" edge="1" parent="KEhaxL_38UV0xd30VIly-1" source="KEhaxL_38UV0xd30VIly-4">
          <mxGeometry width="50" height="50" relative="1" as="geometry">
            <mxPoint x="530" y="350" as="sourcePoint" />
            <mxPoint x="610" y="370" as="targetPoint" />
            <Array as="points">
              <mxPoint x="610" y="295" />
            </Array>
          </mxGeometry>
        </mxCell>
        <mxCell id="w4U5owQXirnziFyodLbK-1" value="LED staret blinken" style="rounded=0;whiteSpace=wrap;html=1;strokeWidth=1;" vertex="1" parent="KEhaxL_38UV0xd30VIly-1">
          <mxGeometry x="340" y="170" width="120" height="60" as="geometry" />
        </mxCell>
        <mxCell id="w4U5owQXirnziFyodLbK-2" value="" style="endArrow=classic;html=1;exitX=0.5;exitY=1;exitDx=0;exitDy=0;entryX=0.5;entryY=0;entryDx=0;entryDy=0;" edge="1" parent="KEhaxL_38UV0xd30VIly-1" source="KEhaxL_38UV0xd30VIly-3" target="w4U5owQXirnziFyodLbK-1">
          <mxGeometry width="50" height="50" relative="1" as="geometry">
            <mxPoint x="170" y="240" as="sourcePoint" />
            <mxPoint x="220" y="190" as="targetPoint" />
          </mxGeometry>
        </mxCell>
        <mxCell id="2671MGZNxHIuFSmor3xH-0" value="" style="endArrow=classic;html=1;exitX=0.5;exitY=1;exitDx=0;exitDy=0;entryX=0.5;entryY=0;entryDx=0;entryDy=0;" edge="1" parent="KEhaxL_38UV0xd30VIly-1" source="w4U5owQXirnziFyodLbK-1" target="KEhaxL_38UV0xd30VIly-4">
          <mxGeometry width="50" height="50" relative="1" as="geometry">
            <mxPoint x="330" y="310" as="sourcePoint" />
            <mxPoint x="380" y="260" as="targetPoint" />
          </mxGeometry>
        </mxCell>
        <mxCell id="2671MGZNxHIuFSmor3xH-1" value="&lt;div&gt;Anzeige &lt;br&gt;&lt;/div&gt;&lt;div&gt;Richtungen&lt;br&gt;&lt;/div&gt;" style="rounded=0;whiteSpace=wrap;html=1;strokeWidth=1;" vertex="1" parent="KEhaxL_38UV0xd30VIly-1">
          <mxGeometry x="150" y="530" width="120" height="60" as="geometry" />
        </mxCell>
        <mxCell id="2671MGZNxHIuFSmor3xH-12" value="" style="edgeStyle=orthogonalEdgeStyle;rounded=0;orthogonalLoop=1;jettySize=auto;html=1;" edge="1" parent="KEhaxL_38UV0xd30VIly-1" source="2671MGZNxHIuFSmor3xH-2" target="2671MGZNxHIuFSmor3xH-3">
          <mxGeometry relative="1" as="geometry" />
        </mxCell>
        <mxCell id="2671MGZNxHIuFSmor3xH-2" value="&lt;div&gt;Anzeige &lt;br&gt;&lt;/div&gt;&lt;div&gt;Richtungen&lt;br&gt;&lt;/div&gt;" style="rounded=0;whiteSpace=wrap;html=1;strokeWidth=1;" vertex="1" parent="KEhaxL_38UV0xd30VIly-1">
          <mxGeometry x="150" y="530" width="120" height="60" as="geometry" />
        </mxCell>
        <mxCell id="2671MGZNxHIuFSmor3xH-3" value="Eingabe einlesen " style="rounded=0;whiteSpace=wrap;html=1;strokeWidth=1;" vertex="1" parent="KEhaxL_38UV0xd30VIly-1">
          <mxGeometry x="150" y="630" width="120" height="60" as="geometry" />
        </mxCell>
        <mxCell id="2671MGZNxHIuFSmor3xH-4" value="Char löschen" style="rounded=0;whiteSpace=wrap;html=1;strokeWidth=1;" vertex="1" parent="KEhaxL_38UV0xd30VIly-1">
          <mxGeometry x="150" y="830" width="120" height="60" as="geometry" />
        </mxCell>
        <mxCell id="2671MGZNxHIuFSmor3xH-5" value="Eingabe richtig?" style="rhombus;whiteSpace=wrap;html=1;strokeWidth=1;" vertex="1" parent="KEhaxL_38UV0xd30VIly-1">
          <mxGeometry x="170" y="714" width="80" height="80" as="geometry" />
        </mxCell>
        <mxCell id="2671MGZNxHIuFSmor3xH-8" value="" style="endArrow=classic;html=1;exitX=1;exitY=0.5;exitDx=0;exitDy=0;entryX=1;entryY=0.5;entryDx=0;entryDy=0;" edge="1" parent="KEhaxL_38UV0xd30VIly-1" source="2671MGZNxHIuFSmor3xH-5" target="2671MGZNxHIuFSmor3xH-2">
          <mxGeometry width="50" height="50" relative="1" as="geometry">
            <mxPoint x="210" y="800" as="sourcePoint" />
            <mxPoint x="280" y="510" as="targetPoint" />
            <Array as="points">
              <mxPoint x="320" y="754" />
              <mxPoint x="320" y="560" />
            </Array>
          </mxGeometry>
        </mxCell>
        <mxCell id="2671MGZNxHIuFSmor3xH-22" value="False" style="edgeLabel;html=1;align=center;verticalAlign=middle;resizable=0;points=[];" vertex="1" connectable="0" parent="2671MGZNxHIuFSmor3xH-8">
          <mxGeometry x="-0.7667" y="-1" relative="1" as="geometry">
            <mxPoint x="-7" y="-1" as="offset" />
          </mxGeometry>
        </mxCell>
        <mxCell id="2671MGZNxHIuFSmor3xH-14" value="" style="endArrow=classic;html=1;exitX=0.5;exitY=1;exitDx=0;exitDy=0;entryX=0.5;entryY=0;entryDx=0;entryDy=0;" edge="1" parent="KEhaxL_38UV0xd30VIly-1" source="2671MGZNxHIuFSmor3xH-3" target="2671MGZNxHIuFSmor3xH-5">
          <mxGeometry width="50" height="50" relative="1" as="geometry">
            <mxPoint x="460" y="730" as="sourcePoint" />
            <mxPoint x="510" y="680" as="targetPoint" />
          </mxGeometry>
        </mxCell>
        <mxCell id="2671MGZNxHIuFSmor3xH-15" value="Last Char?" style="rhombus;whiteSpace=wrap;html=1;strokeWidth=1;" vertex="1" parent="KEhaxL_38UV0xd30VIly-1">
          <mxGeometry x="170" y="990" width="80" height="80" as="geometry" />
        </mxCell>
        <mxCell id="2671MGZNxHIuFSmor3xH-17" value="" style="endArrow=classic;html=1;exitX=0;exitY=0.5;exitDx=0;exitDy=0;entryX=0;entryY=0.5;entryDx=0;entryDy=0;" edge="1" parent="KEhaxL_38UV0xd30VIly-1" source="2671MGZNxHIuFSmor3xH-15" target="2671MGZNxHIuFSmor3xH-3">
          <mxGeometry width="50" height="50" relative="1" as="geometry">
            <mxPoint x="110" y="880" as="sourcePoint" />
            <mxPoint x="160" y="830" as="targetPoint" />
            <Array as="points">
              <mxPoint x="120" y="1030" />
              <mxPoint x="120" y="660" />
            </Array>
          </mxGeometry>
        </mxCell>
        <mxCell id="2671MGZNxHIuFSmor3xH-24" value="False" style="edgeLabel;html=1;align=center;verticalAlign=middle;resizable=0;points=[];" vertex="1" connectable="0" parent="2671MGZNxHIuFSmor3xH-17">
          <mxGeometry x="-0.9422" y="2" relative="1" as="geometry">
            <mxPoint x="-7" y="-2" as="offset" />
          </mxGeometry>
        </mxCell>
        <mxCell id="2671MGZNxHIuFSmor3xH-19" value="Increment Pos" style="rounded=0;whiteSpace=wrap;html=1;strokeWidth=1;" vertex="1" parent="KEhaxL_38UV0xd30VIly-1">
          <mxGeometry x="150" y="910" width="120" height="60" as="geometry" />
        </mxCell>
        <mxCell id="2671MGZNxHIuFSmor3xH-20" value="" style="endArrow=classic;html=1;exitX=0.5;exitY=1;exitDx=0;exitDy=0;" edge="1" parent="KEhaxL_38UV0xd30VIly-1" source="2671MGZNxHIuFSmor3xH-4" target="2671MGZNxHIuFSmor3xH-19">
          <mxGeometry width="50" height="50" relative="1" as="geometry">
            <mxPoint x="330" y="960" as="sourcePoint" />
            <mxPoint x="380" y="910" as="targetPoint" />
          </mxGeometry>
        </mxCell>
        <mxCell id="2671MGZNxHIuFSmor3xH-21" value="" style="endArrow=classic;html=1;exitX=0.5;exitY=1;exitDx=0;exitDy=0;entryX=0.5;entryY=0;entryDx=0;entryDy=0;" edge="1" parent="KEhaxL_38UV0xd30VIly-1" source="2671MGZNxHIuFSmor3xH-19" target="2671MGZNxHIuFSmor3xH-15">
          <mxGeometry width="50" height="50" relative="1" as="geometry">
            <mxPoint x="320" y="1030" as="sourcePoint" />
            <mxPoint x="370" y="980" as="targetPoint" />
          </mxGeometry>
        </mxCell>
        <mxCell id="2671MGZNxHIuFSmor3xH-23" value="True" style="endArrow=classic;html=1;exitX=0.5;exitY=1;exitDx=0;exitDy=0;entryX=0.5;entryY=0;entryDx=0;entryDy=0;" edge="1" parent="KEhaxL_38UV0xd30VIly-1" source="2671MGZNxHIuFSmor3xH-5" target="2671MGZNxHIuFSmor3xH-4">
          <mxGeometry width="50" height="50" relative="1" as="geometry">
            <mxPoint x="270" y="850" as="sourcePoint" />
            <mxPoint x="320" y="800" as="targetPoint" />
          </mxGeometry>
        </mxCell>
        <mxCell id="2671MGZNxHIuFSmor3xH-25" value="Glückwunsch Message" style="rounded=0;whiteSpace=wrap;html=1;strokeWidth=1;" vertex="1" parent="KEhaxL_38UV0xd30VIly-1">
          <mxGeometry x="340" y="1190" width="120" height="60" as="geometry" />
        </mxCell>
        <mxCell id="2671MGZNxHIuFSmor3xH-28" value="" style="rhombus;whiteSpace=wrap;html=1;strokeWidth=1;" vertex="1" parent="KEhaxL_38UV0xd30VIly-1">
          <mxGeometry x="360" y="1280" width="80" height="80" as="geometry" />
        </mxCell>
        <mxCell id="2671MGZNxHIuFSmor3xH-30" value="LED aus" style="rounded=0;whiteSpace=wrap;html=1;strokeWidth=1;" vertex="1" parent="KEhaxL_38UV0xd30VIly-1">
          <mxGeometry x="340" y="1100" width="120" height="60" as="geometry" />
        </mxCell>
        <mxCell id="2671MGZNxHIuFSmor3xH-32" value="" style="endArrow=classic;html=1;exitX=0.5;exitY=1;exitDx=0;exitDy=0;entryX=0;entryY=0.5;entryDx=0;entryDy=0;" edge="1" parent="KEhaxL_38UV0xd30VIly-1" source="2671MGZNxHIuFSmor3xH-15" target="2671MGZNxHIuFSmor3xH-30">
          <mxGeometry width="50" height="50" relative="1" as="geometry">
            <mxPoint x="230" y="1110" as="sourcePoint" />
            <mxPoint x="280" y="1060" as="targetPoint" />
            <Array as="points">
              <mxPoint x="210" y="1130" />
            </Array>
          </mxGeometry>
        </mxCell>
        <mxCell id="2671MGZNxHIuFSmor3xH-33" value="" style="endArrow=classic;html=1;exitX=0.5;exitY=1;exitDx=0;exitDy=0;" edge="1" parent="KEhaxL_38UV0xd30VIly-1" source="2671MGZNxHIuFSmor3xH-30" target="2671MGZNxHIuFSmor3xH-25">
          <mxGeometry width="50" height="50" relative="1" as="geometry">
            <mxPoint x="320" y="1200" as="sourcePoint" />
            <mxPoint x="370" y="1150" as="targetPoint" />
          </mxGeometry>
        </mxCell>
        <mxCell id="2671MGZNxHIuFSmor3xH-34" value="" style="endArrow=classic;html=1;exitX=0.5;exitY=1;exitDx=0;exitDy=0;entryX=0.5;entryY=0;entryDx=0;entryDy=0;" edge="1" parent="KEhaxL_38UV0xd30VIly-1" source="2671MGZNxHIuFSmor3xH-25" target="2671MGZNxHIuFSmor3xH-28">
          <mxGeometry width="50" height="50" relative="1" as="geometry">
            <mxPoint x="240" y="1300" as="sourcePoint" />
            <mxPoint x="290" y="1250" as="targetPoint" />
          </mxGeometry>
        </mxCell>
        <mxCell id="2671MGZNxHIuFSmor3xH-35" value="Main Menu" style="shape=process;whiteSpace=wrap;html=1;backgroundOutline=1;strokeWidth=1;" vertex="1" parent="KEhaxL_38UV0xd30VIly-1">
          <mxGeometry x="340" y="1400" width="120" height="60" as="geometry" />
        </mxCell>
        <mxCell id="2671MGZNxHIuFSmor3xH-36" value="" style="endArrow=classic;html=1;exitX=0.5;exitY=1;exitDx=0;exitDy=0;entryX=0.5;entryY=0;entryDx=0;entryDy=0;" edge="1" parent="KEhaxL_38UV0xd30VIly-1" source="2671MGZNxHIuFSmor3xH-28" target="2671MGZNxHIuFSmor3xH-35">
          <mxGeometry width="50" height="50" relative="1" as="geometry">
            <mxPoint x="190" y="1400" as="sourcePoint" />
            <mxPoint x="240" y="1350" as="targetPoint" />
          </mxGeometry>
        </mxCell>
        <mxCell id="Yn-YihVYFXI5Fzrcps3J-31" style="edgeStyle=orthogonalEdgeStyle;rounded=0;orthogonalLoop=1;jettySize=auto;html=1;exitX=0.5;exitY=1;exitDx=0;exitDy=0;entryX=0.5;entryY=0;entryDx=0;entryDy=0;" edge="1" parent="KEhaxL_38UV0xd30VIly-1" source="Yn-YihVYFXI5Fzrcps3J-0" target="Yn-YihVYFXI5Fzrcps3J-29">
          <mxGeometry relative="1" as="geometry" />
        </mxCell>
        <mxCell id="Yn-YihVYFXI5Fzrcps3J-0" value="&lt;div&gt;Subrountine 1&lt;br&gt;&lt;/div&gt;&lt;div&gt;Touch&lt;br&gt;&lt;/div&gt;" style="rounded=0;whiteSpace=wrap;html=1;" vertex="1" parent="KEhaxL_38UV0xd30VIly-1">
          <mxGeometry x="550" y="370" width="120" height="60" as="geometry" />
        </mxCell>
        <mxCell id="Yn-YihVYFXI5Fzrcps3J-1" value="&lt;div&gt;Anzeige &lt;br&gt;&lt;/div&gt;&lt;div&gt;Richtungen&lt;br&gt;&lt;/div&gt;" style="rounded=0;whiteSpace=wrap;html=1;strokeWidth=1;" vertex="1" parent="KEhaxL_38UV0xd30VIly-1">
          <mxGeometry x="550" y="530" width="120" height="60" as="geometry" />
        </mxCell>
        <mxCell id="Yn-YihVYFXI5Fzrcps3J-2" value="" style="edgeStyle=orthogonalEdgeStyle;rounded=0;orthogonalLoop=1;jettySize=auto;html=1;" edge="1" parent="KEhaxL_38UV0xd30VIly-1" source="Yn-YihVYFXI5Fzrcps3J-3" target="Yn-YihVYFXI5Fzrcps3J-4">
          <mxGeometry relative="1" as="geometry" />
        </mxCell>
        <mxCell id="Yn-YihVYFXI5Fzrcps3J-3" value="&lt;div&gt;Anzeige &lt;br&gt;&lt;/div&gt;&lt;div&gt;Touchfelder&lt;br&gt;&lt;/div&gt;" style="rounded=0;whiteSpace=wrap;html=1;strokeWidth=1;" vertex="1" parent="KEhaxL_38UV0xd30VIly-1">
          <mxGeometry x="550" y="530" width="120" height="60" as="geometry" />
        </mxCell>
        <mxCell id="Yn-YihVYFXI5Fzrcps3J-4" value="Eingabe einlesen " style="rounded=0;whiteSpace=wrap;html=1;strokeWidth=1;" vertex="1" parent="KEhaxL_38UV0xd30VIly-1">
          <mxGeometry x="550" y="630" width="120" height="60" as="geometry" />
        </mxCell>
        <mxCell id="Yn-YihVYFXI5Fzrcps3J-6" value="Eingabe richtig?" style="rhombus;whiteSpace=wrap;html=1;strokeWidth=1;" vertex="1" parent="KEhaxL_38UV0xd30VIly-1">
          <mxGeometry x="570" y="714" width="80" height="80" as="geometry" />
        </mxCell>
        <mxCell id="Yn-YihVYFXI5Fzrcps3J-7" value="" style="endArrow=classic;html=1;exitX=1;exitY=0.5;exitDx=0;exitDy=0;entryX=1;entryY=0.5;entryDx=0;entryDy=0;" edge="1" parent="KEhaxL_38UV0xd30VIly-1" source="Yn-YihVYFXI5Fzrcps3J-6" target="Yn-YihVYFXI5Fzrcps3J-3">
          <mxGeometry width="50" height="50" relative="1" as="geometry">
            <mxPoint x="700" y="800" as="sourcePoint" />
            <mxPoint x="770" y="510" as="targetPoint" />
            <Array as="points">
              <mxPoint x="770" y="754" />
              <mxPoint x="770" y="560" />
            </Array>
          </mxGeometry>
        </mxCell>
        <mxCell id="Yn-YihVYFXI5Fzrcps3J-8" value="False" style="edgeLabel;html=1;align=center;verticalAlign=middle;resizable=0;points=[];" vertex="1" connectable="0" parent="Yn-YihVYFXI5Fzrcps3J-7">
          <mxGeometry x="-0.7667" y="-1" relative="1" as="geometry">
            <mxPoint y="-1" as="offset" />
          </mxGeometry>
        </mxCell>
        <mxCell id="Yn-YihVYFXI5Fzrcps3J-10" value="" style="endArrow=classic;html=1;exitX=0.5;exitY=1;exitDx=0;exitDy=0;entryX=0.5;entryY=0;entryDx=0;entryDy=0;" edge="1" parent="KEhaxL_38UV0xd30VIly-1" source="Yn-YihVYFXI5Fzrcps3J-4" target="Yn-YihVYFXI5Fzrcps3J-6">
          <mxGeometry width="50" height="50" relative="1" as="geometry">
            <mxPoint x="860" y="730" as="sourcePoint" />
            <mxPoint x="910" y="680" as="targetPoint" />
          </mxGeometry>
        </mxCell>
        <mxCell id="Yn-YihVYFXI5Fzrcps3J-17" value="True" style="endArrow=classic;html=1;exitX=0.5;exitY=1;exitDx=0;exitDy=0;entryX=1;entryY=0.5;entryDx=0;entryDy=0;" edge="1" parent="KEhaxL_38UV0xd30VIly-1" source="Yn-YihVYFXI5Fzrcps3J-6" target="2671MGZNxHIuFSmor3xH-30">
          <mxGeometry x="-0.9011" width="50" height="50" relative="1" as="geometry">
            <mxPoint x="670" y="850" as="sourcePoint" />
            <mxPoint x="610" y="1100" as="targetPoint" />
            <Array as="points">
              <mxPoint x="610" y="1130" />
            </Array>
            <mxPoint as="offset" />
          </mxGeometry>
        </mxCell>
        <mxCell id="Yn-YihVYFXI5Fzrcps3J-22" value="" style="endArrow=classic;html=1;exitX=0.5;exitY=1;exitDx=0;exitDy=0;" edge="1" parent="KEhaxL_38UV0xd30VIly-1" target="Yn-YihVYFXI5Fzrcps3J-18">
          <mxGeometry width="50" height="50" relative="1" as="geometry">
            <mxPoint x="610" y="1160" as="sourcePoint" />
            <mxPoint x="820" y="1150" as="targetPoint" />
          </mxGeometry>
        </mxCell>
        <mxCell id="Yn-YihVYFXI5Fzrcps3J-23" value="" style="endArrow=classic;html=1;exitX=0.5;exitY=1;exitDx=0;exitDy=0;entryX=0.5;entryY=0;entryDx=0;entryDy=0;" edge="1" parent="KEhaxL_38UV0xd30VIly-1" target="Yn-YihVYFXI5Fzrcps3J-19">
          <mxGeometry width="50" height="50" relative="1" as="geometry">
            <mxPoint x="610" y="1250" as="sourcePoint" />
            <mxPoint x="740" y="1250" as="targetPoint" />
          </mxGeometry>
        </mxCell>
        <mxCell id="Yn-YihVYFXI5Fzrcps3J-25" value="" style="endArrow=classic;html=1;exitX=0.5;exitY=1;exitDx=0;exitDy=0;entryX=0.5;entryY=0;entryDx=0;entryDy=0;" edge="1" parent="KEhaxL_38UV0xd30VIly-1" target="Yn-YihVYFXI5Fzrcps3J-24">
          <mxGeometry width="50" height="50" relative="1" as="geometry">
            <mxPoint x="610" y="1360" as="sourcePoint" />
            <mxPoint x="690" y="1350" as="targetPoint" />
          </mxGeometry>
        </mxCell>
        <mxCell id="Yn-YihVYFXI5Fzrcps3J-28" style="edgeStyle=orthogonalEdgeStyle;rounded=0;orthogonalLoop=1;jettySize=auto;html=1;exitX=0.5;exitY=1;exitDx=0;exitDy=0;entryX=0.5;entryY=0;entryDx=0;entryDy=0;" edge="1" parent="KEhaxL_38UV0xd30VIly-1" source="Yn-YihVYFXI5Fzrcps3J-26" target="2671MGZNxHIuFSmor3xH-2">
          <mxGeometry relative="1" as="geometry" />
        </mxCell>
        <mxCell id="Yn-YihVYFXI5Fzrcps3J-26" value="Code generieren" style="rounded=0;whiteSpace=wrap;html=1;strokeWidth=1;" vertex="1" parent="KEhaxL_38UV0xd30VIly-1">
          <mxGeometry x="150" y="450" width="120" height="60" as="geometry" />
        </mxCell>
        <mxCell id="Yn-YihVYFXI5Fzrcps3J-27" value="" style="endArrow=classic;html=1;exitX=0.5;exitY=1;exitDx=0;exitDy=0;entryX=0.5;entryY=0;entryDx=0;entryDy=0;" edge="1" parent="KEhaxL_38UV0xd30VIly-1" source="KEhaxL_38UV0xd30VIly-6" target="Yn-YihVYFXI5Fzrcps3J-26">
          <mxGeometry width="50" height="50" relative="1" as="geometry">
            <mxPoint x="300" y="470" as="sourcePoint" />
            <mxPoint x="350" y="420" as="targetPoint" />
          </mxGeometry>
        </mxCell>
        <mxCell id="Yn-YihVYFXI5Fzrcps3J-32" style="edgeStyle=orthogonalEdgeStyle;rounded=0;orthogonalLoop=1;jettySize=auto;html=1;exitX=0.5;exitY=1;exitDx=0;exitDy=0;" edge="1" parent="KEhaxL_38UV0xd30VIly-1" source="Yn-YihVYFXI5Fzrcps3J-29" target="Yn-YihVYFXI5Fzrcps3J-3">
          <mxGeometry relative="1" as="geometry" />
        </mxCell>
        <mxCell id="Yn-YihVYFXI5Fzrcps3J-29" value="Code generieren" style="rounded=0;whiteSpace=wrap;html=1;strokeWidth=1;" vertex="1" parent="KEhaxL_38UV0xd30VIly-1">
          <mxGeometry x="550" y="450" width="120" height="60" as="geometry" />
        </mxCell>
      </root>
    </mxGraphModel>
  </diagram>
</mxfile>
